<svg xmlns="http://www.w3.org/2000/svg" width="980" height="900" viewBox="0 0 980 900" role="img" aria-labelledby="title desc">
  <title id="title">Optimizer Candidate Workload Comparison</title>
  <desc id="desc">Mean wall-clock runtime in milliseconds for RR candidate workloads across optimization tiers.</desc>
  <rect width="980" height="900" fill="#fcfcf8"/>
  <text x="24" y="34" font-family="Helvetica, Arial, sans-serif" font-size="22" fill="#16212b">Optimizer Candidate Workload Comparison</text>
  <text x="24" y="56" font-family="Helvetica, Arial, sans-serif" font-size="12" fill="#4b5b67">Vector fusion, orbital sweep, bootstrap resample; Apple M4; RR O0/O1/O2 cold and warm timing</text>
  <line x1="390" y1="86" x2="390" y2="840" stroke="#9aa8b2" stroke-width="1"/>
  <line x1="390" y1="840" x2="910" y2="840" stroke="#9aa8b2" stroke-width="1"/>
  <g font-family="Helvetica, Arial, sans-serif" font-size="11" fill="#5d6b75">
    <text x="390" y="858" text-anchor="middle">0</text>
    <text x="494" y="858" text-anchor="middle">196</text>
    <text x="598" y="858" text-anchor="middle">392</text>
    <text x="702" y="858" text-anchor="middle">588</text>
    <text x="806" y="858" text-anchor="middle">784</text>
    <text x="910" y="858" text-anchor="middle">980</text>
  </g>
  <g font-family="Helvetica, Arial, sans-serif" font-size="14" fill="#16212b">
    <text x="24" y="102">Vector Fusion RR O0</text>
    <text x="24" y="142">Vector Fusion RR O0 warm x10</text>
    <text x="24" y="182">Vector Fusion RR O1</text>
    <text x="24" y="222">Vector Fusion RR O1 warm x10</text>
    <text x="24" y="262">Vector Fusion RR O2</text>
    <text x="24" y="302">Vector Fusion RR O2 warm x10</text>
    <text x="24" y="342">Orbital Sweep RR O0</text>
    <text x="24" y="382">Orbital Sweep RR O0 warm x10</text>
    <text x="24" y="422">Orbital Sweep RR O1</text>
    <text x="24" y="462">Orbital Sweep RR O1 warm x10</text>
    <text x="24" y="502">Orbital Sweep RR O2</text>
    <text x="24" y="542">Orbital Sweep RR O2 warm x10</text>
    <text x="24" y="582">Bootstrap Resample RR O0</text>
    <text x="24" y="622">Bootstrap Resample RR O0 warm x10</text>
    <text x="24" y="662">Bootstrap Resample RR O1</text>
    <text x="24" y="702">Bootstrap Resample RR O1 warm x10</text>
    <text x="24" y="742">Bootstrap Resample RR O2</text>
    <text x="24" y="782">Bootstrap Resample RR O2 warm x10</text>
  </g>
  <rect x="390" y="86" width="520.0" height="22" fill="#6d597a" rx="4"/>
  <text x="920.0" y="102" font-family="Helvetica, Arial, sans-serif" font-size="12" fill="#16212b">979.9 ms ± 141.6</text>
  <rect x="390" y="126" width="283.8" height="22" fill="#b07aa1" rx="4"/>
  <text x="683.8" y="142" font-family="Helvetica, Arial, sans-serif" font-size="12" fill="#16212b">534.8 ms ± 41.2</text>
  <rect x="390" y="166" width="205.8" height="22" fill="#457b9d" rx="4"/>
  <text x="605.8" y="182" font-family="Helvetica, Arial, sans-serif" font-size="12" fill="#16212b">387.8 ms ± 13.9</text>
  <rect x="390" y="206" width="20.5" height="22" fill="#74a7d4" rx="4"/>
  <text x="420.5" y="222" font-family="Helvetica, Arial, sans-serif" font-size="12" fill="#16212b">38.6 ms ± 2.6</text>
  <rect x="390" y="246" width="178.5" height="22" fill="#2a9d8f" rx="4"/>
  <text x="578.5" y="262" font-family="Helvetica, Arial, sans-serif" font-size="12" fill="#16212b">336.4 ms ± 18.5</text>
  <rect x="390" y="286" width="18.5" height="22" fill="#8fd0c4" rx="4"/>
  <text x="418.5" y="302" font-family="Helvetica, Arial, sans-serif" font-size="12" fill="#16212b">34.8 ms ± 2.1</text>
  <rect x="390" y="326" width="247.6" height="22" fill="#6d597a" rx="4"/>
  <text x="647.6" y="342" font-family="Helvetica, Arial, sans-serif" font-size="12" fill="#16212b">466.6 ms ± 19.4</text>
  <rect x="390" y="366" width="86.4" height="22" fill="#b07aa1" rx="4"/>
  <text x="486.4" y="382" font-family="Helvetica, Arial, sans-serif" font-size="12" fill="#16212b">162.9 ms ± 3.0</text>
  <rect x="390" y="406" width="247.4" height="22" fill="#457b9d" rx="4"/>
  <text x="647.4" y="422" font-family="Helvetica, Arial, sans-serif" font-size="12" fill="#16212b">466.3 ms ± 13.2</text>
  <rect x="390" y="446" width="89.9" height="22" fill="#74a7d4" rx="4"/>
  <text x="489.9" y="462" font-family="Helvetica, Arial, sans-serif" font-size="12" fill="#16212b">169.5 ms ± 18.4</text>
  <rect x="390" y="486" width="216.4" height="22" fill="#2a9d8f" rx="4"/>
  <text x="616.4" y="502" font-family="Helvetica, Arial, sans-serif" font-size="12" fill="#16212b">407.7 ms ± 38.0</text>
  <rect x="390" y="526" width="82.2" height="22" fill="#8fd0c4" rx="4"/>
  <text x="482.2" y="542" font-family="Helvetica, Arial, sans-serif" font-size="12" fill="#16212b">154.9 ms ± 5.5</text>
  <rect x="390" y="566" width="365.3" height="22" fill="#6d597a" rx="4"/>
  <text x="765.3" y="582" font-family="Helvetica, Arial, sans-serif" font-size="12" fill="#16212b">688.4 ms ± 8.9</text>
  <rect x="390" y="606" width="197.5" height="22" fill="#b07aa1" rx="4"/>
  <text x="597.5" y="622" font-family="Helvetica, Arial, sans-serif" font-size="12" fill="#16212b">372.2 ms ± 28.3</text>
  <rect x="390" y="646" width="224.6" height="22" fill="#457b9d" rx="4"/>
  <text x="624.6" y="662" font-family="Helvetica, Arial, sans-serif" font-size="12" fill="#16212b">423.3 ms ± 14.1</text>
  <rect x="390" y="686" width="55.1" height="22" fill="#74a7d4" rx="4"/>
  <text x="455.1" y="702" font-family="Helvetica, Arial, sans-serif" font-size="12" fill="#16212b">103.8 ms ± 8.9</text>
  <rect x="390" y="726" width="268.5" height="22" fill="#2a9d8f" rx="4"/>
  <text x="668.5" y="742" font-family="Helvetica, Arial, sans-serif" font-size="12" fill="#16212b">506.0 ms ± 30.1</text>
  <rect x="390" y="766" width="58.5" height="22" fill="#8fd0c4" rx="4"/>
  <text x="458.5" y="782" font-family="Helvetica, Arial, sans-serif" font-size="12" fill="#16212b">110.2 ms ± 1.2</text>
  <g font-family="Helvetica, Arial, sans-serif" font-size="11" fill="#4b5b67">
    <text x="24" y="878">Source data: backend_candidate_bench.csv</text>
  </g>
</svg>
