<svg xmlns="http://www.w3.org/2000/svg" width="980" height="900" viewBox="0 0 980 900" role="img" aria-labelledby="title desc">
  <title id="title">Optimizer Candidate Workload Comparison</title>
  <desc id="desc">Mean wall-clock runtime in milliseconds for RR candidate workloads across optimization tiers.</desc>
  <rect width="980" height="900" fill="#fcfcf8"/>
  <text x="24" y="34" font-family="Helvetica, Arial, sans-serif" font-size="22" fill="#16212b">Optimizer Candidate Workload Comparison</text>
  <text x="24" y="56" font-family="Helvetica, Arial, sans-serif" font-size="12" fill="#4b5b67">Vector fusion, orbital sweep, bootstrap resample; Apple M4; RR O0/O1/O2 cold and warm timing</text>
  <line x1="390" y1="86" x2="390" y2="840" stroke="#9aa8b2" stroke-width="1"/>
  <line x1="390" y1="840" x2="910" y2="840" stroke="#9aa8b2" stroke-width="1"/>
  <g font-family="Helvetica, Arial, sans-serif" font-size="11" fill="#5d6b75">
    <text x="390" y="858" text-anchor="middle">0</text>
    <text x="494" y="858" text-anchor="middle">113</text>
    <text x="598" y="858" text-anchor="middle">227</text>
    <text x="702" y="858" text-anchor="middle">340</text>
    <text x="806" y="858" text-anchor="middle">453</text>
    <text x="910" y="858" text-anchor="middle">566</text>
  </g>
  <g font-family="Helvetica, Arial, sans-serif" font-size="14" fill="#16212b">
    <text x="24" y="102">Vector Fusion RR O0</text>
    <text x="24" y="142">Vector Fusion RR O0 warm x10</text>
    <text x="24" y="182">Vector Fusion RR O1</text>
    <text x="24" y="222">Vector Fusion RR O1 warm x10</text>
    <text x="24" y="262">Vector Fusion RR O2</text>
    <text x="24" y="302">Vector Fusion RR O2 warm x10</text>
    <text x="24" y="342">Orbital Sweep RR O0</text>
    <text x="24" y="382">Orbital Sweep RR O0 warm x10</text>
    <text x="24" y="422">Orbital Sweep RR O1</text>
    <text x="24" y="462">Orbital Sweep RR O1 warm x10</text>
    <text x="24" y="502">Orbital Sweep RR O2</text>
    <text x="24" y="542">Orbital Sweep RR O2 warm x10</text>
    <text x="24" y="582">Bootstrap Resample RR O0</text>
    <text x="24" y="622">Bootstrap Resample RR O0 warm x10</text>
    <text x="24" y="662">Bootstrap Resample RR O1</text>
    <text x="24" y="702">Bootstrap Resample RR O1 warm x10</text>
    <text x="24" y="742">Bootstrap Resample RR O2</text>
    <text x="24" y="782">Bootstrap Resample RR O2 warm x10</text>
  </g>
  <rect x="390" y="86" width="520.0" height="22" fill="#6d597a" rx="4"/>
  <text x="920.0" y="102" font-family="Helvetica, Arial, sans-serif" font-size="12" fill="#16212b">566.4 ms ± 0.0</text>
  <rect x="390" y="126" width="341.0" height="22" fill="#b07aa1" rx="4"/>
  <text x="741.0" y="142" font-family="Helvetica, Arial, sans-serif" font-size="12" fill="#16212b">371.4 ms ± 0.0</text>
  <rect x="390" y="166" width="205.6" height="22" fill="#457b9d" rx="4"/>
  <text x="605.6" y="182" font-family="Helvetica, Arial, sans-serif" font-size="12" fill="#16212b">223.9 ms ± 0.0</text>
  <rect x="390" y="206" width="25.0" height="22" fill="#74a7d4" rx="4"/>
  <text x="425.0" y="222" font-family="Helvetica, Arial, sans-serif" font-size="12" fill="#16212b">27.2 ms ± 0.0</text>
  <rect x="390" y="246" width="217.9" height="22" fill="#2a9d8f" rx="4"/>
  <text x="617.9" y="262" font-family="Helvetica, Arial, sans-serif" font-size="12" fill="#16212b">237.3 ms ± 0.0</text>
  <rect x="390" y="286" width="27.7" height="22" fill="#8fd0c4" rx="4"/>
  <text x="427.7" y="302" font-family="Helvetica, Arial, sans-serif" font-size="12" fill="#16212b">30.2 ms ± 0.0</text>
  <rect x="390" y="326" width="270.6" height="22" fill="#6d597a" rx="4"/>
  <text x="670.6" y="342" font-family="Helvetica, Arial, sans-serif" font-size="12" fill="#16212b">294.7 ms ± 0.0</text>
  <rect x="390" y="366" width="119.1" height="22" fill="#b07aa1" rx="4"/>
  <text x="519.1" y="382" font-family="Helvetica, Arial, sans-serif" font-size="12" fill="#16212b">129.7 ms ± 0.0</text>
  <rect x="390" y="406" width="279.3" height="22" fill="#457b9d" rx="4"/>
  <text x="679.3" y="422" font-family="Helvetica, Arial, sans-serif" font-size="12" fill="#16212b">304.2 ms ± 0.0</text>
  <rect x="390" y="446" width="112.3" height="22" fill="#74a7d4" rx="4"/>
  <text x="512.3" y="462" font-family="Helvetica, Arial, sans-serif" font-size="12" fill="#16212b">122.3 ms ± 0.0</text>
  <rect x="390" y="486" width="271.8" height="22" fill="#2a9d8f" rx="4"/>
  <text x="671.8" y="502" font-family="Helvetica, Arial, sans-serif" font-size="12" fill="#16212b">296.0 ms ± 0.0</text>
  <rect x="390" y="526" width="109.2" height="22" fill="#8fd0c4" rx="4"/>
  <text x="509.2" y="542" font-family="Helvetica, Arial, sans-serif" font-size="12" fill="#16212b">118.9 ms ± 0.0</text>
  <rect x="390" y="566" width="467.8" height="22" fill="#6d597a" rx="4"/>
  <text x="867.8" y="582" font-family="Helvetica, Arial, sans-serif" font-size="12" fill="#16212b">509.5 ms ± 0.0</text>
  <rect x="390" y="606" width="266.5" height="22" fill="#b07aa1" rx="4"/>
  <text x="666.5" y="622" font-family="Helvetica, Arial, sans-serif" font-size="12" fill="#16212b">290.3 ms ± 0.0</text>
  <rect x="390" y="646" width="263.9" height="22" fill="#457b9d" rx="4"/>
  <text x="663.9" y="662" font-family="Helvetica, Arial, sans-serif" font-size="12" fill="#16212b">287.4 ms ± 0.0</text>
  <rect x="390" y="686" width="70.6" height="22" fill="#74a7d4" rx="4"/>
  <text x="470.6" y="702" font-family="Helvetica, Arial, sans-serif" font-size="12" fill="#16212b">76.9 ms ± 0.0</text>
  <rect x="390" y="726" width="294.7" height="22" fill="#2a9d8f" rx="4"/>
  <text x="694.7" y="742" font-family="Helvetica, Arial, sans-serif" font-size="12" fill="#16212b">321.0 ms ± 0.0</text>
  <rect x="390" y="766" width="70.4" height="22" fill="#8fd0c4" rx="4"/>
  <text x="470.4" y="782" font-family="Helvetica, Arial, sans-serif" font-size="12" fill="#16212b">76.7 ms ± 0.0</text>
  <g font-family="Helvetica, Arial, sans-serif" font-size="11" fill="#4b5b67">
    <text x="24" y="878">Source data: backend_candidate_bench.csv</text>
  </g>
</svg>
