<svg xmlns="http://www.w3.org/2000/svg" width="980" height="900" viewBox="0 0 980 900" role="img" aria-labelledby="title desc">
  <title id="title">Optimizer Candidate Workload Comparison</title>
  <desc id="desc">Mean wall-clock runtime in milliseconds for RR candidate workloads across optimization tiers.</desc>
  <rect width="980" height="900" fill="#fcfcf8"/>
  <text x="24" y="34" font-family="Helvetica, Arial, sans-serif" font-size="22" fill="#16212b">Optimizer Candidate Workload Comparison</text>
  <text x="24" y="56" font-family="Helvetica, Arial, sans-serif" font-size="12" fill="#4b5b67">Vector fusion, orbital sweep, bootstrap resample; Apple M4; RR O0/O1/O2 cold and warm timing</text>
  <line x1="390" y1="86" x2="390" y2="840" stroke="#9aa8b2" stroke-width="1"/>
  <line x1="390" y1="840" x2="910" y2="840" stroke="#9aa8b2" stroke-width="1"/>
  <g font-family="Helvetica, Arial, sans-serif" font-size="11" fill="#5d6b75">
    <text x="390" y="858" text-anchor="middle">0</text>
    <text x="494" y="858" text-anchor="middle">41</text>
    <text x="598" y="858" text-anchor="middle">81</text>
    <text x="702" y="858" text-anchor="middle">122</text>
    <text x="806" y="858" text-anchor="middle">162</text>
    <text x="910" y="858" text-anchor="middle">203</text>
  </g>
  <g font-family="Helvetica, Arial, sans-serif" font-size="14" fill="#16212b">
    <text x="24" y="102">Vector Fusion RR O0</text>
    <text x="24" y="142">Vector Fusion RR O0 warm x10</text>
    <text x="24" y="182">Vector Fusion RR O1</text>
    <text x="24" y="222">Vector Fusion RR O1 warm x10</text>
    <text x="24" y="262">Vector Fusion RR O2</text>
    <text x="24" y="302">Vector Fusion RR O2 warm x10</text>
    <text x="24" y="342">Orbital Sweep RR O0</text>
    <text x="24" y="382">Orbital Sweep RR O0 warm x10</text>
    <text x="24" y="422">Orbital Sweep RR O1</text>
    <text x="24" y="462">Orbital Sweep RR O1 warm x10</text>
    <text x="24" y="502">Orbital Sweep RR O2</text>
    <text x="24" y="542">Orbital Sweep RR O2 warm x10</text>
    <text x="24" y="582">Bootstrap Resample RR O0</text>
    <text x="24" y="622">Bootstrap Resample RR O0 warm x10</text>
    <text x="24" y="662">Bootstrap Resample RR O1</text>
    <text x="24" y="702">Bootstrap Resample RR O1 warm x10</text>
    <text x="24" y="742">Bootstrap Resample RR O2</text>
    <text x="24" y="782">Bootstrap Resample RR O2 warm x10</text>
  </g>
  <rect x="390" y="86" width="520.0" height="22" fill="#6d597a" rx="4"/>
  <text x="920.0" y="102" font-family="Helvetica, Arial, sans-serif" font-size="12" fill="#16212b">203.0 ms ± 8.8</text>
  <rect x="390" y="126" width="432.4" height="22" fill="#b07aa1" rx="4"/>
  <text x="832.4" y="142" font-family="Helvetica, Arial, sans-serif" font-size="12" fill="#16212b">168.8 ms ± 6.9</text>
  <rect x="390" y="166" width="238.0" height="22" fill="#457b9d" rx="4"/>
  <text x="638.0" y="182" font-family="Helvetica, Arial, sans-serif" font-size="12" fill="#16212b">92.9 ms ± 4.3</text>
  <rect x="390" y="206" width="23.1" height="22" fill="#74a7d4" rx="4"/>
  <text x="423.1" y="222" font-family="Helvetica, Arial, sans-serif" font-size="12" fill="#16212b">9.0 ms ± 0.1</text>
  <rect x="390" y="246" width="229.3" height="22" fill="#2a9d8f" rx="4"/>
  <text x="629.3" y="262" font-family="Helvetica, Arial, sans-serif" font-size="12" fill="#16212b">89.5 ms ± 1.0</text>
  <rect x="390" y="286" width="23.8" height="22" fill="#8fd0c4" rx="4"/>
  <text x="423.8" y="302" font-family="Helvetica, Arial, sans-serif" font-size="12" fill="#16212b">9.3 ms ± 0.4</text>
  <rect x="390" y="326" width="275.4" height="22" fill="#6d597a" rx="4"/>
  <text x="675.4" y="342" font-family="Helvetica, Arial, sans-serif" font-size="12" fill="#16212b">107.5 ms ± 2.1</text>
  <rect x="390" y="366" width="124.5" height="22" fill="#b07aa1" rx="4"/>
  <text x="524.5" y="382" font-family="Helvetica, Arial, sans-serif" font-size="12" fill="#16212b">48.6 ms ± 6.6</text>
  <rect x="390" y="406" width="279.7" height="22" fill="#457b9d" rx="4"/>
  <text x="679.7" y="422" font-family="Helvetica, Arial, sans-serif" font-size="12" fill="#16212b">109.2 ms ± 8.6</text>
  <rect x="390" y="446" width="115.3" height="22" fill="#74a7d4" rx="4"/>
  <text x="515.3" y="462" font-family="Helvetica, Arial, sans-serif" font-size="12" fill="#16212b">45.0 ms ± 1.6</text>
  <rect x="390" y="486" width="417.0" height="22" fill="#2a9d8f" rx="4"/>
  <text x="817.0" y="502" font-family="Helvetica, Arial, sans-serif" font-size="12" fill="#16212b">162.8 ms ± 56.1</text>
  <rect x="390" y="526" width="131.9" height="22" fill="#8fd0c4" rx="4"/>
  <text x="531.9" y="542" font-family="Helvetica, Arial, sans-serif" font-size="12" fill="#16212b">51.5 ms ± 6.7</text>
  <rect x="390" y="566" width="450.8" height="22" fill="#6d597a" rx="4"/>
  <text x="850.8" y="582" font-family="Helvetica, Arial, sans-serif" font-size="12" fill="#16212b">176.0 ms ± 9.2</text>
  <rect x="390" y="606" width="226.2" height="22" fill="#b07aa1" rx="4"/>
  <text x="626.2" y="622" font-family="Helvetica, Arial, sans-serif" font-size="12" fill="#16212b">88.3 ms ± 2.0</text>
  <rect x="390" y="646" width="277.7" height="22" fill="#457b9d" rx="4"/>
  <text x="677.7" y="662" font-family="Helvetica, Arial, sans-serif" font-size="12" fill="#16212b">108.4 ms ± 2.5</text>
  <rect x="390" y="686" width="57.4" height="22" fill="#74a7d4" rx="4"/>
  <text x="457.4" y="702" font-family="Helvetica, Arial, sans-serif" font-size="12" fill="#16212b">22.4 ms ± 0.1</text>
  <rect x="390" y="726" width="281.8" height="22" fill="#2a9d8f" rx="4"/>
  <text x="681.8" y="742" font-family="Helvetica, Arial, sans-serif" font-size="12" fill="#16212b">110.0 ms ± 4.3</text>
  <rect x="390" y="766" width="57.6" height="22" fill="#8fd0c4" rx="4"/>
  <text x="457.6" y="782" font-family="Helvetica, Arial, sans-serif" font-size="12" fill="#16212b">22.5 ms ± 0.1</text>
  <g font-family="Helvetica, Arial, sans-serif" font-size="11" fill="#4b5b67">
    <text x="24" y="878">Source data: backend-candidate-runtime-2026-04-27.csv</text>
  </g>
</svg>
