<svg xmlns="http://www.w3.org/2000/svg" width="980" height="708" viewBox="0 0 980 708" role="img" aria-labelledby="title desc">
  <title id="title">Diffusion Optimizer Tier Comparison</title>
  <desc id="desc">Mean wall-clock runtime in milliseconds for heat and reaction diffusion workloads across RR optimization tiers.</desc>
  <rect width="980" height="708" fill="#fcfcf8"/>
  <text x="24" y="34" font-family="Helvetica, Arial, sans-serif" font-size="22" fill="#16212b">Diffusion Optimizer Tier Comparison</text>
  <text x="24" y="56" font-family="Helvetica, Arial, sans-serif" font-size="12" fill="#4b5b67">Heat and reaction diffusion workloads, Apple M4, RR O0/O1/O2 cold and warm timing</text>
  <line x1="380" y1="86" x2="380" y2="648" stroke="#9aa8b2" stroke-width="1"/>
  <line x1="380" y1="648" x2="910" y2="648" stroke="#9aa8b2" stroke-width="1"/>
  <g font-family="Helvetica, Arial, sans-serif" font-size="11" fill="#5d6b75">
    <text x="380" y="666" text-anchor="middle">0</text>
    <text x="486" y="666" text-anchor="middle">124</text>
    <text x="592" y="666" text-anchor="middle">249</text>
    <text x="698" y="666" text-anchor="middle">373</text>
    <text x="804" y="666" text-anchor="middle">498</text>
    <text x="910" y="666" text-anchor="middle">622</text>
  </g>
  <g font-family="Helvetica, Arial, sans-serif" font-size="14" fill="#16212b">
    <text x="24" y="102">Heat Diffusion RR O0</text>
    <text x="24" y="146">Heat Diffusion RR O0 warm x10</text>
    <text x="24" y="190">Heat Diffusion RR O1</text>
    <text x="24" y="234">Heat Diffusion RR O1 warm x10</text>
    <text x="24" y="278">Heat Diffusion RR O2</text>
    <text x="24" y="322">Heat Diffusion RR O2 warm x10</text>
    <text x="24" y="366">Reaction Diffusion RR O0</text>
    <text x="24" y="410">Reaction Diffusion RR O0 warm x10</text>
    <text x="24" y="454">Reaction Diffusion RR O1</text>
    <text x="24" y="498">Reaction Diffusion RR O1 warm x10</text>
    <text x="24" y="542">Reaction Diffusion RR O2</text>
    <text x="24" y="586">Reaction Diffusion RR O2 warm x10</text>
  </g>
  <rect x="380" y="86" width="231.2" height="22" fill="#6d597a" rx="4"/>
  <text x="621.2" y="102" font-family="Helvetica, Arial, sans-serif" font-size="12" fill="#16212b">271.5 ms ± 18.7</text>
  <rect x="380" y="130" width="95.8" height="22" fill="#b07aa1" rx="4"/>
  <text x="485.8" y="146" font-family="Helvetica, Arial, sans-serif" font-size="12" fill="#16212b">112.5 ms ± 2.2</text>
  <rect x="380" y="174" width="182.7" height="22" fill="#457b9d" rx="4"/>
  <text x="572.7" y="190" font-family="Helvetica, Arial, sans-serif" font-size="12" fill="#16212b">214.5 ms ± 8.1</text>
  <rect x="380" y="218" width="21.6" height="22" fill="#74a7d4" rx="4"/>
  <text x="411.6" y="234" font-family="Helvetica, Arial, sans-serif" font-size="12" fill="#16212b">25.4 ms ± 0.9</text>
  <rect x="380" y="262" width="185.1" height="22" fill="#2a9d8f" rx="4"/>
  <text x="575.1" y="278" font-family="Helvetica, Arial, sans-serif" font-size="12" fill="#16212b">217.4 ms ± 5.4</text>
  <rect x="380" y="306" width="21.7" height="22" fill="#8fd0c4" rx="4"/>
  <text x="411.7" y="322" font-family="Helvetica, Arial, sans-serif" font-size="12" fill="#16212b">25.5 ms ± 1.7</text>
  <rect x="380" y="350" width="530.0" height="22" fill="#6d597a" rx="4"/>
  <text x="920.0" y="366" font-family="Helvetica, Arial, sans-serif" font-size="12" fill="#16212b">622.4 ms ± 4.3</text>
  <rect x="380" y="394" width="424.1" height="22" fill="#b07aa1" rx="4"/>
  <text x="814.1" y="410" font-family="Helvetica, Arial, sans-serif" font-size="12" fill="#16212b">498.0 ms ± 3.4</text>
  <rect x="380" y="438" width="179.8" height="22" fill="#457b9d" rx="4"/>
  <text x="569.8" y="454" font-family="Helvetica, Arial, sans-serif" font-size="12" fill="#16212b">211.1 ms ± 2.6</text>
  <rect x="380" y="482" width="26.2" height="22" fill="#74a7d4" rx="4"/>
  <text x="416.2" y="498" font-family="Helvetica, Arial, sans-serif" font-size="12" fill="#16212b">30.8 ms ± 1.3</text>
  <rect x="380" y="526" width="177.8" height="22" fill="#2a9d8f" rx="4"/>
  <text x="567.8" y="542" font-family="Helvetica, Arial, sans-serif" font-size="12" fill="#16212b">208.8 ms ± 3.9</text>
  <rect x="380" y="570" width="27.2" height="22" fill="#8fd0c4" rx="4"/>
  <text x="417.2" y="586" font-family="Helvetica, Arial, sans-serif" font-size="12" fill="#16212b">31.9 ms ± 0.4</text>
  <g font-family="Helvetica, Arial, sans-serif" font-size="11" fill="#4b5b67">
    <text x="24" y="686">Source data: diffusion_backend_bench.csv</text>
  </g>
</svg>
