<svg xmlns="http://www.w3.org/2000/svg" width="980" height="708" viewBox="0 0 980 708" role="img" aria-labelledby="title desc">
  <title id="title">Diffusion Optimizer Tier Comparison</title>
  <desc id="desc">Mean wall-clock runtime in milliseconds for heat and reaction diffusion workloads across RR optimization tiers.</desc>
  <rect width="980" height="708" fill="#fcfcf8"/>
  <text x="24" y="34" font-family="Helvetica, Arial, sans-serif" font-size="22" fill="#16212b">Diffusion Optimizer Tier Comparison</text>
  <text x="24" y="56" font-family="Helvetica, Arial, sans-serif" font-size="12" fill="#4b5b67">Heat and reaction diffusion workloads, Apple M4, RR O0/O1/O2 cold and warm timing</text>
  <line x1="380" y1="86" x2="380" y2="648" stroke="#9aa8b2" stroke-width="1"/>
  <line x1="380" y1="648" x2="910" y2="648" stroke="#9aa8b2" stroke-width="1"/>
  <g font-family="Helvetica, Arial, sans-serif" font-size="11" fill="#5d6b75">
    <text x="380" y="666" text-anchor="middle">0</text>
    <text x="486" y="666" text-anchor="middle">68</text>
    <text x="592" y="666" text-anchor="middle">135</text>
    <text x="698" y="666" text-anchor="middle">203</text>
    <text x="804" y="666" text-anchor="middle">271</text>
    <text x="910" y="666" text-anchor="middle">338</text>
  </g>
  <g font-family="Helvetica, Arial, sans-serif" font-size="14" fill="#16212b">
    <text x="24" y="102">Heat Diffusion RR O0</text>
    <text x="24" y="146">Heat Diffusion RR O0 warm x10</text>
    <text x="24" y="190">Heat Diffusion RR O1</text>
    <text x="24" y="234">Heat Diffusion RR O1 warm x10</text>
    <text x="24" y="278">Heat Diffusion RR O2</text>
    <text x="24" y="322">Heat Diffusion RR O2 warm x10</text>
    <text x="24" y="366">Reaction Diffusion RR O0</text>
    <text x="24" y="410">Reaction Diffusion RR O0 warm x10</text>
    <text x="24" y="454">Reaction Diffusion RR O1</text>
    <text x="24" y="498">Reaction Diffusion RR O1 warm x10</text>
    <text x="24" y="542">Reaction Diffusion RR O2</text>
    <text x="24" y="586">Reaction Diffusion RR O2 warm x10</text>
  </g>
  <rect x="380" y="86" width="199.4" height="22" fill="#6d597a" rx="4"/>
  <text x="589.4" y="102" font-family="Helvetica, Arial, sans-serif" font-size="12" fill="#16212b">127.3 ms ± 0.6</text>
  <rect x="380" y="130" width="101.0" height="22" fill="#b07aa1" rx="4"/>
  <text x="491.0" y="146" font-family="Helvetica, Arial, sans-serif" font-size="12" fill="#16212b">64.5 ms ± 0.2</text>
  <rect x="380" y="174" width="166.2" height="22" fill="#457b9d" rx="4"/>
  <text x="556.2" y="190" font-family="Helvetica, Arial, sans-serif" font-size="12" fill="#16212b">106.1 ms ± 0.6</text>
  <rect x="380" y="218" width="19.6" height="22" fill="#74a7d4" rx="4"/>
  <text x="409.6" y="234" font-family="Helvetica, Arial, sans-serif" font-size="12" fill="#16212b">12.5 ms ± 0.3</text>
  <rect x="380" y="262" width="216.6" height="22" fill="#2a9d8f" rx="4"/>
  <text x="606.6" y="278" font-family="Helvetica, Arial, sans-serif" font-size="12" fill="#16212b">138.3 ms ± 34.4</text>
  <rect x="380" y="306" width="21.5" height="22" fill="#8fd0c4" rx="4"/>
  <text x="411.5" y="322" font-family="Helvetica, Arial, sans-serif" font-size="12" fill="#16212b">13.7 ms ± 1.0</text>
  <rect x="380" y="350" width="530.0" height="22" fill="#6d597a" rx="4"/>
  <text x="920.0" y="366" font-family="Helvetica, Arial, sans-serif" font-size="12" fill="#16212b">338.4 ms ± 54.8</text>
  <rect x="380" y="394" width="410.7" height="22" fill="#b07aa1" rx="4"/>
  <text x="800.7" y="410" font-family="Helvetica, Arial, sans-serif" font-size="12" fill="#16212b">262.2 ms ± 4.8</text>
  <rect x="380" y="438" width="180.7" height="22" fill="#457b9d" rx="4"/>
  <text x="570.7" y="454" font-family="Helvetica, Arial, sans-serif" font-size="12" fill="#16212b">115.4 ms ± 3.9</text>
  <rect x="380" y="482" width="31.8" height="22" fill="#74a7d4" rx="4"/>
  <text x="421.8" y="498" font-family="Helvetica, Arial, sans-serif" font-size="12" fill="#16212b">20.3 ms ± 0.1</text>
  <rect x="380" y="526" width="186.8" height="22" fill="#2a9d8f" rx="4"/>
  <text x="576.8" y="542" font-family="Helvetica, Arial, sans-serif" font-size="12" fill="#16212b">119.3 ms ± 3.8</text>
  <rect x="380" y="570" width="32.4" height="22" fill="#8fd0c4" rx="4"/>
  <text x="422.4" y="586" font-family="Helvetica, Arial, sans-serif" font-size="12" fill="#16212b">20.7 ms ± 0.5</text>
  <g font-family="Helvetica, Arial, sans-serif" font-size="11" fill="#4b5b67">
    <text x="24" y="686">Source data: diffusion-backend-runtime-2026-04-27.csv</text>
  </g>
</svg>
